{
    "asset": {
        "copyright": "2020 (c) Adobe Inc.",
        "generator": "Adobe Dimension - a39c749b7f1dd68e8fcb597e3575f0bb9d09bfc8",
        "version": "2.0"
    },
    "accessors": [
        {
            "bufferView": 0,
            "componentType": 5126,
            "count": 24912,
            "type": "VEC3",
            "max": [
                1.2015069723129273,
                1.5013749599456788,
                2.207693099975586
            ],
            "min": [
                0.001507078530266881,
                0.30137497186660769,
                1.457693099975586
            ]
        },
        {
            "bufferView": 1,
            "componentType": 5126,
            "count": 24912,
            "type": "VEC3"
        },
        {
            "bufferView": 2,
            "componentType": 5126,
            "count": 24912,
            "type": "VEC2"
        },
        {
            "bufferView": 3,
            "componentType": 5125,
            "count": 24912,
            "type": "SCALAR",
            "max": [
                24911.0
            ],
            "min": [
                0.0
            ]
        }
    ],
    "bufferViews": [
        {
            "buffer": 0,
            "byteOffset": 0,
            "byteLength": 298944,
            "target": 34962
        },
        {
            "buffer": 0,
            "byteOffset": 298944,
            "byteLength": 298944,
            "target": 34962
        },
        {
            "buffer": 0,
            "byteOffset": 597888,
            "byteLength": 199296,
            "target": 34962
        },
        {
            "buffer": 0,
            "byteOffset": 797184,
            "byteLength": 99648,
            "target": 34963
        }
    ],
    "buffers": [
        {
            "byteLength": 896832,
            "uri": "arTry_binary.bin"
        }
    ],
    "cameras": [
        {
            "perspective": {
                "znear": 0.00005785471512353979,
                "yfov": 0.6024156808853149,
                "zfar": 3.18200945854187,
                "aspectRatio": 1.3333333730697632
            },
            "type": "perspective",
            "name": "render_camera"
        }
    ],
    "images": [
        {
            "name": "basecolor_image_texture",
            "uri": "arTry_images/basecolor_image_texture.jpg",
            "mimeType": "image/jpeg"
        },
        {
            "name": "normal_image_texture",
            "uri": "arTry_images/normal_image_texture.png",
            "mimeType": "image/png"
        }
    ],
    "materials": [
        {
            "pbrMetallicRoughness": {
                "baseColorTexture": {
                    "index": 0
                },
                "metallicFactor": 0.0,
                "roughnessFactor": 0.800000011920929
            },
            "normalTexture": {
                "index": 1
            },
            "name": "Cardboard",
            "doubleSided": true
        }
    ],
    "meshes": [
        {
            "name": "body",
            "primitives": [
                {
                    "attributes": {
                        "POSITION": 0,
                        "NORMAL": 1,
                        "TEXCOORD_0": 2
                    },
                    "indices": 3,
                    "material": 0
                }
            ]
        }
    ],
    "nodes": [
        {
            "translation": [
                -2.0956292152404787,
                0.20450446009635926,
                -1.6955678462982178
            ],
            "rotation": [
                -0.12059047073125839,
                0.379409521818161,
                0.04995020851492882,
                0.9159756302833557
            ],
            "scale": [
                1.0,
                1.0,
                0.9999999403953552
            ],
            "camera": 0,
            "name": "render_camera_n3d"
        },
        {
            "translation": [
                -1.3271758556365967,
                -0.5292434692382813,
                -2.2264883518218996
            ],
            "rotation": [
                -0.02278324030339718,
                0.11316438764333725,
                0.012890121899545193,
                0.9932314157485962
            ],
            "scale": [
                1.4178847074508668,
                1.4178844690322877,
                1.4178842306137086
            ],
            "mesh": 0,
            "name": "body"
        }
    ],
    "samplers": [
        {},
        {}
    ],
    "scenes": [
        {
            "nodes": [
                0,
                1
            ],
            "name": "scene"
        }
    ],
    "textures": [
        {
            "name": "basecolor_image_texture",
            "sampler": 0,
            "source": 0
        },
        {
            "name": "normal_image_texture",
            "sampler": 1,
            "source": 1
        }
    ],
    "scene": 0
}