{
    "asset": {
        "copyright": "2020 (c) Adobe Inc.",
        "generator": "Adobe Dimension - a39c749b7f1dd68e8fcb597e3575f0bb9d09bfc8",
        "version": "2.0"
    },
    "accessors": [
        {
            "bufferView": 0,
            "componentType": 5126,
            "count": 24912,
            "type": "VEC3",
            "max": [
                1.2015069723129273,
                1.5013749599456788,
                2.207693099975586
            ],
            "min": [
                0.001507078530266881,
                0.30137497186660769,
                1.457693099975586
            ]
        },
        {
            "bufferView": 1,
            "componentType": 5126,
            "count": 24912,
            "type": "VEC3"
        },
        {
            "bufferView": 2,
            "componentType": 5126,
            "count": 24912,
            "type": "VEC2"
        },
        {
            "bufferView": 3,
            "componentType": 5125,
            "count": 24912,
            "type": "SCALAR",
            "max": [
                24911.0
            ],
            "min": [
                0.0
            ]
        }
    ],
    "bufferViews": [
        {
            "buffer": 0,
            "byteOffset": 0,
            "byteLength": 298944,
            "target": 34962
        },
        {
            "buffer": 0,
            "byteOffset": 298944,
            "byteLength": 298944,
            "target": 34962
        },
        {
            "buffer": 0,
            "byteOffset": 597888,
            "byteLength": 199296,
            "target": 34962
        },
        {
            "buffer": 0,
            "byteOffset": 797184,
            "byteLength": 99648,
            "target": 34963
        }
    ],
    "buffers": [
        {
            "byteLength": 896832,
            "uri": "Untitled_binary.bin"
        }
    ],
    "cameras": [
        {
            "perspective": {
                "znear": 0.00005167186463950202,
                "yfov": 0.6024156808853149,
                "zfar": 2.8419528007507326,
                "aspectRatio": 1.3333333730697632
            },
            "type": "perspective",
            "name": "render_camera"
        }
    ],
    "images": [
        {
            "name": "image_image",
            "uri": "Untitled_images/image_image.png",
            "mimeType": "image/png"
        },
        {
            "name": "american_walnut_crown_cut_protection_normal",
            "uri": "Untitled_images/american_walnut_crown_cut_protection_normal.png",
            "mimeType": "image/png"
        }
    ],
    "materials": [
        {
            "pbrMetallicRoughness": {
                "baseColorFactor": [
                    0.49102088809013369,
                    0.2158605307340622,
                    0.2158605307340622,
                    1.0
                ],
                "metallicRoughnessTexture": {
                    "index": 0
                }
            },
            "normalTexture": {
                "index": 1
            },
            "name": "Walnut Wood",
            "doubleSided": true
        }
    ],
    "meshes": [
        {
            "name": "body",
            "primitives": [
                {
                    "attributes": {
                        "POSITION": 0,
                        "NORMAL": 1,
                        "TEXCOORD_0": 2
                    },
                    "indices": 3,
                    "material": 0
                }
            ]
        }
    ],
    "nodes": [
        {
            "translation": [
                -6.640472412109375,
                -0.2544664740562439,
                -6.452106952667236
            ],
            "rotation": [
                -0.12059047073125839,
                0.379409521818161,
                0.04995020851492882,
                0.9159756302833557
            ],
            "scale": [
                1.0,
                1.0,
                0.9999999403953552
            ],
            "camera": 0,
            "name": "render_camera_n3d"
        },
        {
            "translation": [
                -1.1108545064926148,
                -0.728911817073822,
                -1.0339336395263672
            ],
            "rotation": [
                -0.10224427282810211,
                0.20677274465560914,
                0.021732689812779428,
                0.9727892279624939
            ],
            "scale": [
                1.0,
                1.44455885887146,
                1.0
            ],
            "mesh": 0,
            "name": "body"
        }
    ],
    "samplers": [
        {},
        {}
    ],
    "scenes": [
        {
            "nodes": [
                0,
                1
            ],
            "name": "scene"
        }
    ],
    "textures": [
        {
            "name": "image_image",
            "sampler": 0,
            "source": 0
        },
        {
            "name": "american_walnut_crown_cut_protection_material::normal::image",
            "sampler": 1,
            "source": 1
        }
    ],
    "scene": 0
}