{"accessors" : [{"bufferView" : 0, "byteOffset" : 0, "componentType" : 5123, "count" : 26484, "type" : "SCALAR", "max" : [26483], "min" : [0]}, {"bufferView" : 1, "byteOffset" : 0, "componentType" : 5126, "count" : 26484, "type" : "VEC3", "max" : [102.86164855957031, 155.79641723632812, 218.01577758789062], "min" : [-17.138347625732422, 35.796417236328125, 73.01576232910156], "name" : "POSITION"}, {"bufferView" : 1, "byteOffset" : 12, "componentType" : 5121, "normalized" : true, "count" : 26484, "type" : "VEC4", "name" : "COLOR_0"}], "asset" : {"generator" : "Aspose.3D 21.3.1", "version" : "2.0"}, "buffers" : [{"uri" : "buffer.bin", "byteLength" : 476720}], "bufferViews" : [{"buffer" : 0, "byteOffset" : 0, "byteLength" : 52968, "target" : 34963}, {"buffer" : 0, "byteOffset" : 52972, "byteLength" : 423744, "byteStride" : 16, "target" : 34962}], "meshes" : [{"primitives" : [{"attributes" : {"POSITION" : 1, "COLOR_0" : 2}, "indices" : 0, "mode" : 4}]}], "nodes" : [{"mesh" : 0, "name" : "model"}], "scene" : 0, "scenes" : [{"nodes" : [0]}]}